<svg width="16" height="16" viewBox="0 0 16 16" fill="none" xmlns="http://www.w3.org/2000/svg">
<path d="M8.41754 15.8286C10.4067 15.8286 12.3143 15.0384 13.7208 13.6319C15.1274 12.2254 15.9175 10.3177 15.9175 8.32861C15.9175 6.33949 15.1274 4.43184 13.7208 3.02531C12.3143 1.61879 10.4067 0.828613 8.41754 0.828613C6.42842 0.828613 4.52076 1.61879 3.11424 3.02531C1.70772 4.43184 0.917542 6.33949 0.917542 8.32861C0.917542 10.3177 1.70772 12.2254 3.11424 13.6319C4.52076 15.0384 6.42842 15.8286 8.41754 15.8286ZM5.72516 10.3647C6.24957 10.9712 7.14606 11.6099 8.41754 11.6099C9.68903 11.6099 10.5855 10.9712 11.1099 10.3647C11.2798 10.1685 11.5757 10.1479 11.772 10.3179C11.9683 10.4878 11.9888 10.7837 11.8189 10.98C11.1656 11.73 10.0318 12.5474 8.41754 12.5474C6.80328 12.5474 5.66949 11.73 5.01617 10.98C4.84625 10.7837 4.86676 10.4878 5.06305 10.3179C5.25934 10.1479 5.55524 10.1685 5.72516 10.3647ZM5.14801 6.92236C5.14801 6.67372 5.24678 6.43527 5.4226 6.25945C5.59841 6.08364 5.83687 5.98486 6.08551 5.98486C6.33415 5.98486 6.57261 6.08364 6.74842 6.25945C6.92424 6.43527 7.02301 6.67372 7.02301 6.92236C7.02301 7.171 6.92424 7.40946 6.74842 7.58528C6.57261 7.76109 6.33415 7.85986 6.08551 7.85986C5.83687 7.85986 5.59841 7.76109 5.4226 7.58528C5.24678 7.40946 5.14801 7.171 5.14801 6.92236ZM10.773 5.98486C11.0217 5.98486 11.2601 6.08364 11.4359 6.25945C11.6117 6.43527 11.7105 6.67372 11.7105 6.92236C11.7105 7.171 11.6117 7.40946 11.4359 7.58528C11.2601 7.76109 11.0217 7.85986 10.773 7.85986C10.5244 7.85986 10.2859 7.76109 10.1101 7.58528C9.93428 7.40946 9.83551 7.171 9.83551 6.92236C9.83551 6.67372 9.93428 6.43527 10.1101 6.25945C10.2859 6.08364 10.5244 5.98486 10.773 5.98486Z" fill="white" fill-opacity="0.9"/>
</svg>
