<svg width="41" height="40" viewBox="0 0 41 40" fill="none" xmlns="http://www.w3.org/2000/svg">
<path d="M29.6775 11.252C29.6775 10.7482 29.3728 10.2912 28.9041 10.0959C28.4353 9.90062 27.9001 10.01 27.5408 10.3654L25.8376 12.0723C23.9626 13.9471 21.4197 15.0016 18.7673 15.0016H18.4275H17.1775H13.4275C12.0486 15.0016 10.9275 16.1226 10.9275 17.5014V21.251C10.9275 22.6297 12.0486 23.7507 13.4275 23.7507V28.7501C13.4275 29.4415 13.9861 30 14.6775 30H17.1775C17.8689 30 18.4275 29.4415 18.4275 28.7501V23.7507H18.7673C21.4197 23.7507 23.9626 24.8053 25.8376 26.68L27.5408 28.383C27.9001 28.7423 28.4353 28.8478 28.9041 28.6525C29.3728 28.4572 29.6775 28.0041 29.6775 27.4964V21.7353C30.4041 21.3916 30.9275 20.4659 30.9275 19.3762C30.9275 18.2864 30.4041 17.3607 29.6775 17.017V11.252ZM27.1775 14.2478V19.3762V24.5045C24.8806 22.4149 21.8845 21.251 18.7673 21.251H18.4275V17.5014H18.7673C21.8845 17.5014 24.8806 16.3374 27.1775 14.2478Z" fill="white"/>
<circle cx="20.9275" cy="20" r="20" fill="white" fill-opacity="0.1"/>
</svg>
