<svg width="24" height="27" viewBox="0 0 24 27" fill="none" xmlns="http://www.w3.org/2000/svg">
<path d="M5.29656 0.968428L4.05261 3.09731C3.86045 3.426 3.75932 3.80525 3.75932 4.18956V4.33115C3.75932 5.44869 4.66447 6.35384 5.78201 6.35384C6.89954 6.35384 7.8047 5.44869 7.8047 4.33115V4.18956C7.8047 3.80525 7.70356 3.43105 7.51141 3.09731L6.26745 0.968428C6.16632 0.796499 5.98428 0.690308 5.78201 0.690308C5.57974 0.690308 5.3977 0.796499 5.29656 0.968428ZM11.7692 0.968428L10.5252 3.09731C10.3331 3.426 10.2319 3.80525 10.2319 4.18956V4.33115C10.2319 5.44869 11.1371 6.35384 12.2546 6.35384C13.3722 6.35384 14.2773 5.44869 14.2773 4.33115V4.18956C14.2773 3.80525 14.1762 3.43105 13.984 3.09731L12.7401 0.968428C12.6389 0.796499 12.4569 0.690308 12.2546 0.690308C12.0523 0.690308 11.8703 0.796499 11.7692 0.968428ZM16.9978 3.09731C16.8057 3.426 16.7045 3.80525 16.7045 4.18956V4.33115C16.7045 5.44869 17.6097 6.35384 18.7272 6.35384C19.8448 6.35384 20.7499 5.44869 20.7499 4.33115V4.18956C20.7499 3.80525 20.6488 3.43105 20.4566 3.09731L19.2127 0.968428C19.1115 0.796499 18.9295 0.690308 18.7272 0.690308C18.525 0.690308 18.3429 0.796499 18.2418 0.968428L16.9978 3.09731ZM7.40016 9.59015C7.40016 8.69511 6.67705 7.97199 5.78201 7.97199C4.88697 7.97199 4.16386 8.69511 4.16386 9.59015V12.0174C2.37883 12.0174 0.927551 13.4687 0.927551 15.2537V18.844C1.34726 19.1069 1.84282 19.2991 2.38389 19.2991C3.06655 19.2991 3.75932 18.9906 4.32567 18.6215C4.59873 18.4445 4.82629 18.2624 4.98305 18.131C5.0589 18.0652 5.11958 18.0096 5.16003 17.9742C5.18026 17.954 5.19543 17.9439 5.20048 17.9337L5.20554 17.9287C5.3623 17.7669 5.57974 17.6809 5.80729 17.686C6.03484 17.691 6.24217 17.7922 6.39387 17.959L6.39893 17.9641C6.40399 17.9691 6.41916 17.9843 6.43433 17.9995C6.46972 18.0349 6.52029 18.0854 6.59108 18.1512C6.73267 18.2827 6.93494 18.4596 7.18778 18.6316C7.70356 18.9906 8.35083 19.294 9.02337 19.294C9.69592 19.294 10.3432 18.9906 10.859 18.6316C11.1118 18.4546 11.3141 18.2827 11.4557 18.1512C11.5264 18.0854 11.577 18.0349 11.6124 17.9995C11.6276 17.9843 11.6428 17.9691 11.6478 17.9641L11.6529 17.959C11.8046 17.782 12.0271 17.686 12.2597 17.686C12.4923 17.686 12.7148 17.7871 12.8665 17.959L12.8715 17.9641C12.8766 17.9691 12.8918 17.9843 12.9069 17.9995C12.9423 18.0349 12.9929 18.0854 13.0637 18.1512C13.2053 18.2827 13.4076 18.4596 13.6604 18.6316C14.1762 18.9906 14.8234 19.294 15.496 19.294C16.1685 19.294 16.8158 18.9906 17.3316 18.6316C17.5844 18.4546 17.7867 18.2827 17.9283 18.1512C17.9991 18.0854 18.0496 18.0349 18.085 17.9995C18.1002 17.9843 18.1154 17.9691 18.1204 17.9641L18.1255 17.959C18.2721 17.7871 18.4845 17.691 18.7121 17.686C18.9396 17.6809 19.152 17.7669 19.3138 17.9287L19.3189 17.9337C19.329 17.9439 19.3391 17.954 19.3593 17.9742C19.3998 18.0096 19.4554 18.0652 19.5363 18.131C19.6931 18.2624 19.9156 18.4445 20.1937 18.6215C20.76 18.9906 21.4528 19.2991 22.1355 19.2991C22.6765 19.2991 23.1721 19.1018 23.5918 18.844V15.2537C23.5918 13.4687 22.1405 12.0174 20.3555 12.0174V9.59015C20.3555 8.69511 19.6324 7.97199 18.7373 7.97199C17.8423 7.97199 17.1192 8.69511 17.1192 9.59015V12.0174H13.8728V9.59015C13.8728 8.69511 13.1497 7.97199 12.2546 7.97199C11.3596 7.97199 10.6365 8.69511 10.6365 9.59015V12.0174H7.40016V9.59015ZM23.5817 20.6441C23.1519 20.811 22.6614 20.9172 22.1253 20.9172C20.9876 20.9172 19.9813 20.4166 19.3037 19.9767C19.0964 19.8401 18.9093 19.7036 18.7525 19.5822C18.6109 19.7036 18.4441 19.8351 18.257 19.9615C17.6046 20.4115 16.6337 20.9172 15.4909 20.9172C14.3481 20.9172 13.3772 20.4115 12.7299 19.9615C12.553 19.8401 12.3911 19.7137 12.2546 19.5974C12.1181 19.7137 11.9563 19.8351 11.7793 19.9615C11.132 20.4115 10.1611 20.9172 9.01831 20.9172C7.87549 20.9172 6.9046 20.4115 6.25734 19.9615C6.07024 19.83 5.90337 19.6985 5.76178 19.5822C5.60502 19.7036 5.41792 19.8401 5.2106 19.9767C4.52794 20.4166 3.52165 20.9172 2.38389 20.9172C1.84788 20.9172 1.35737 20.806 0.927551 20.6441V24.9626C0.927551 25.8576 1.65066 26.5807 2.5457 26.5807H21.9635C22.8586 26.5807 23.5817 25.8576 23.5817 24.9626V20.6441Z" fill="white"/>
</svg>
