<svg width="14" height="14" viewBox="0 0 14 14" fill="none" xmlns="http://www.w3.org/2000/svg">
<g clip-path="url(#clip0_203_67)">
<path d="M13.1634 4.88803C13.2447 5.10893 13.1761 5.35522 13.0009 5.51264L12.2164 6.22611C12.0208 6.40638 11.9269 6.67045 11.9396 6.93451C11.9421 7.00814 11.9447 7.08177 11.9447 7.15795C11.9447 7.23412 11.9421 7.30775 11.9396 7.38138C11.9269 7.64798 12.0183 7.91205 12.2164 8.08978L13.0009 8.80326C13.1761 8.96068 13.2447 9.20697 13.1634 9.42786C13.0517 9.73001 12.9171 10.0195 12.7622 10.2988L12.6429 10.5044C12.4753 10.7837 12.2874 11.0478 12.0818 11.2966C11.932 11.4794 11.6832 11.5404 11.4597 11.4693L10.4517 11.1493C10.1978 11.0681 9.92358 11.1214 9.69761 11.2661C9.57319 11.3449 9.44624 11.421 9.31421 11.487C9.07808 11.6089 8.89527 11.8222 8.83687 12.0812L8.61089 13.1146C8.56011 13.3456 8.38238 13.5284 8.14878 13.5665C7.79839 13.6249 7.43785 13.6554 7.06968 13.6554C6.70152 13.6554 6.34097 13.6249 5.99058 13.5665C5.75699 13.5284 5.57926 13.3456 5.52848 13.1146L5.3025 12.0812C5.24664 11.8222 5.06129 11.6089 4.82516 11.487C4.69313 11.4185 4.56617 11.3449 4.44176 11.2661C4.21832 11.1214 3.94157 11.0681 3.68766 11.1493L2.68219 11.4718C2.45876 11.5429 2.20993 11.4794 2.06012 11.2991C1.85446 11.0503 1.66657 10.7863 1.49899 10.507L1.37966 10.3013C1.22477 10.022 1.0902 9.73255 0.978485 9.4304C0.897236 9.2095 0.96579 8.96322 1.14099 8.80579L1.92555 8.09232C2.12106 7.91205 2.21501 7.64798 2.20231 7.38392C2.19977 7.31029 2.19723 7.23666 2.19723 7.16049C2.19723 7.08431 2.19977 7.01068 2.20231 6.93705C2.21501 6.67045 2.1236 6.40638 1.92555 6.22865L1.14099 5.51264C0.96579 5.35522 0.897236 5.10893 0.978485 4.88803C1.0902 4.58588 1.22477 4.29643 1.37966 4.01713L1.49899 3.81147C1.66657 3.53217 1.85446 3.26811 2.06012 3.01928C2.20993 2.83647 2.45876 2.77553 2.68219 2.84663L3.6902 3.16655C3.9441 3.2478 4.21832 3.19448 4.4443 3.04975C4.56871 2.97104 4.69567 2.89487 4.8277 2.82885C5.06383 2.70698 5.24664 2.4937 5.30504 2.23471L5.53101 1.20132C5.5818 0.970263 5.75953 0.787451 5.99312 0.749365C6.34351 0.688428 6.70406 0.657959 7.07222 0.657959C7.44039 0.657959 7.80093 0.688428 8.15132 0.746826C8.38492 0.784912 8.56265 0.967724 8.61343 1.19878L8.83941 2.23217C8.89527 2.49116 9.07808 2.70444 9.31675 2.82631C9.44878 2.89487 9.57573 2.9685 9.70015 3.04721C9.92358 3.19194 10.2003 3.24272 10.4542 3.16401L11.4623 2.84409C11.6857 2.77299 11.9345 2.83647 12.0843 3.01674C12.29 3.26557 12.4779 3.52963 12.6455 3.80893L12.7648 4.01459C12.9197 4.29389 13.0542 4.58334 13.166 4.88549L13.1634 4.88803ZM7.07222 9.18919C7.61094 9.18919 8.1276 8.97519 8.50853 8.59425C8.88946 8.21332 9.10347 7.69667 9.10347 7.15795C9.10347 6.61923 8.88946 6.10257 8.50853 5.72164C8.1276 5.34071 7.61094 5.1267 7.07222 5.1267C6.5335 5.1267 6.01685 5.34071 5.63591 5.72164C5.25498 6.10257 5.04098 6.61923 5.04098 7.15795C5.04098 7.69667 5.25498 8.21332 5.63591 8.59425C6.01685 8.97519 6.5335 9.18919 7.07222 9.18919Z" fill="white" fill-opacity="0.9"/>
</g>
<defs>
<clipPath id="clip0_203_67">
<rect width="13" height="13" fill="white" transform="translate(0.92749 0.657959)"/>
</clipPath>
</defs>
</svg>
