<svg width="26" height="26" viewBox="0 0 26 26" fill="none" xmlns="http://www.w3.org/2000/svg">
<circle cx="12.9999" cy="13.2804" r="12.5" fill="white" fill-opacity="0.1"/>
<path d="M8.87355 10.8808C8.63721 10.6525 8.32068 10.5262 7.99213 10.529C7.66358 10.5319 7.34928 10.6637 7.11695 10.896C6.88462 11.1283 6.75284 11.4426 6.74999 11.7712C6.74713 12.0997 6.87343 12.4162 7.10169 12.6526L12.114 17.6649C12.349 17.8998 12.6677 18.0318 12.9999 18.0318C13.3322 18.0318 13.6509 17.8998 13.8859 17.6649L18.8982 12.6526C19.1264 12.4162 19.2527 12.0997 19.2499 11.7712C19.247 11.4426 19.1153 11.1283 18.8829 10.896C18.6506 10.6637 18.3363 10.5319 18.0077 10.529C17.6792 10.5262 17.3627 10.6525 17.1263 10.8808L12.9999 15.0071L8.87355 10.8808Z" fill="white" fill-opacity="0.9"/>
</svg>
