<svg width="18" height="16" viewBox="0 0 18 16" fill="none" xmlns="http://www.w3.org/2000/svg">
<path d="M0.607666 2.97147C0.607666 1.78955 1.5686 0.828613 2.75052 0.828613H15.6077C16.7896 0.828613 17.7505 1.78955 17.7505 2.97147V13.6858C17.7505 14.8677 16.7896 15.8286 15.6077 15.8286H2.75052C1.5686 15.8286 0.607666 14.8677 0.607666 13.6858V2.97147ZM11.4492 6.53732C11.2985 6.31634 11.0507 6.18576 10.7862 6.18576C10.5217 6.18576 10.2706 6.31634 10.1233 6.53732L7.21034 10.8096L6.32307 9.70138C6.16905 9.51053 5.93802 9.40004 5.69695 9.40004C5.45588 9.40004 5.22151 9.51053 5.07084 9.70138L2.92798 12.38C2.73378 12.621 2.69695 12.9525 2.83088 13.2304C2.96481 13.5083 3.24606 13.6858 3.55409 13.6858H6.76838H7.83981H14.8041C15.1021 13.6858 15.3766 13.5217 15.5139 13.2572C15.6512 12.9927 15.6345 12.6746 15.467 12.4302L11.4492 6.53732ZM4.35767 6.18576C4.78391 6.18576 5.19269 6.01643 5.49409 5.71503C5.79549 5.41364 5.96481 5.00485 5.96481 4.57861C5.96481 4.15237 5.79549 3.74359 5.49409 3.44219C5.19269 3.14079 4.78391 2.97147 4.35767 2.97147C3.93143 2.97147 3.52264 3.14079 3.22124 3.44219C2.91985 3.74359 2.75052 4.15237 2.75052 4.57861C2.75052 5.00485 2.91985 5.41364 3.22124 5.71503C3.52264 6.01643 3.93143 6.18576 4.35767 6.18576Z" fill="white" fill-opacity="0.9"/>
</svg>
