<svg width="28" height="26" viewBox="0 0 28 26" fill="none" xmlns="http://www.w3.org/2000/svg">
<path d="M22.0732 15.0661C25.2035 15.0661 27.3928 17.7304 27.3928 21.0072C27.3928 22.6554 26.0928 23.9947 24.4964 23.9947H23.5785C23.1767 23.9947 22.875 23.6411 22.9232 23.2411C22.9464 23.0322 22.9589 22.8197 22.9589 22.6036V21.7161C22.9589 19.6518 22.3339 17.7286 21.2625 16.1215C20.9625 15.6697 21.2625 15.0661 21.8017 15.0661H22.0732ZM20.6964 13.2804C18.7267 13.2804 17.125 11.4786 17.125 9.26255C17.125 6.82327 18.5267 5.2447 20.6964 5.2447C22.866 5.2447 24.2678 6.82327 24.2678 9.26255C24.2678 11.4786 22.666 13.2804 20.6964 13.2804ZM12.5214 14.1733C16.7821 14.1733 20.25 17.5572 20.25 21.7161V22.6036C20.25 24.3554 18.791 25.7804 16.9946 25.7804H3.86246C2.06603 25.7804 0.607101 24.3554 0.607101 22.6036V21.7161C0.607101 17.5572 4.07317 14.1733 8.33567 14.1733H12.5214ZM15.3392 6.13755C15.3392 9.09291 13.1375 11.4947 10.4285 11.4947C7.72139 11.4947 5.51782 9.09291 5.51782 6.13755C5.51782 2.83398 7.39996 0.780411 10.4285 0.780411C13.4589 0.780411 15.3392 2.83398 15.3392 6.13755Z" fill="white"/>
</svg>
