<svg width="31" height="30" viewBox="0 0 31 30" fill="none" xmlns="http://www.w3.org/2000/svg">
<path d="M27.4679 15C27.4679 8.19539 21.9511 2.6786 15.1465 2.6786C8.34182 2.6786 2.82504 8.19539 2.82504 15C2.82504 21.8047 8.34182 27.3215 15.1465 27.3215C21.9511 27.3215 27.4679 21.8047 27.4679 15ZM29.075 15C29.075 22.6929 22.8393 28.9286 15.1465 28.9286C7.45361 28.9286 1.2179 22.6929 1.2179 15C1.2179 7.30717 7.45361 1.07146 15.1465 1.07146C22.8393 1.07146 29.075 7.30717 29.075 15ZM8.15968 15H8.32254C8.64611 15 8.82718 15.3622 8.64718 15.6332C8.00432 16.5975 7.62825 17.7515 7.62825 18.99V19.5225C7.62825 19.6522 7.63575 19.7797 7.65075 19.905C7.67861 20.145 7.49861 20.3572 7.25754 20.3572H6.70682C5.7479 20.3572 4.9679 19.5536 4.9679 18.5647C4.9679 16.5986 6.28254 15 8.15968 15ZM22.1333 15C24.0115 15 25.325 16.5986 25.325 18.5647C25.325 19.5536 24.545 20.3572 23.5872 20.3572H23.0365C22.7954 20.3572 22.6143 20.145 22.6433 19.905C22.6572 19.7797 22.6647 19.6522 22.6647 19.5225V18.99C22.6647 17.7515 22.2897 16.5975 21.6468 15.6332C21.4668 15.3622 21.6468 15 21.9704 15H22.1333ZM8.98575 13.9286C7.80397 13.9286 6.8429 12.8475 6.8429 11.5179C6.8429 10.0543 7.68397 9.10717 8.98575 9.10717C10.2875 9.10717 11.1286 10.0543 11.1286 11.5179C11.1286 12.8475 10.1675 13.9286 8.98575 13.9286ZM21.3072 13.9286C20.1254 13.9286 19.1643 12.8475 19.1643 11.5179C19.1643 10.0543 20.0054 9.10717 21.3072 9.10717C22.609 9.10717 23.45 10.0543 23.45 11.5179C23.45 12.8475 22.489 13.9286 21.3072 13.9286ZM16.4022 14.4643C18.9586 14.4643 21.0393 16.4947 21.0393 18.99V19.5225C21.0393 20.5736 20.164 21.4286 19.0861 21.4286H11.2068C10.129 21.4286 9.25361 20.5736 9.25361 19.5225V18.99C9.25361 16.4947 11.3333 14.4643 13.8908 14.4643H16.4022ZM18.0929 9.64289C18.0929 11.4161 16.7718 12.8572 15.1465 12.8572C13.5222 12.8572 12.2 11.4161 12.2 9.64289C12.2 7.66074 13.3293 6.4286 15.1465 6.4286C16.9647 6.4286 18.0929 7.66074 18.0929 9.64289Z" fill="white"/>
</svg>
