<svg width="31" height="30" viewBox="0 0 31 30" fill="none" xmlns="http://www.w3.org/2000/svg">
<g clip-path="url(#clip0_203_260)">
<path d="M7.64648 12.8125V17.8125C7.64648 18.0612 7.74526 18.2996 7.92108 18.4754C8.09689 18.6513 8.33534 18.75 8.58398 18.75C8.83262 18.75 9.07108 18.6513 9.24689 18.4754C9.42271 18.2996 9.52148 18.0612 9.52148 17.8125V12.8125C9.52148 12.5639 9.42271 12.3254 9.24689 12.1496C9.07108 11.9738 8.83262 11.875 8.58398 11.875C8.33534 11.875 8.09689 11.9738 7.92108 12.1496C7.74526 12.3254 7.64648 12.5639 7.64648 12.8125Z" fill="white"/>
<path d="M6.08398 16.25H11.084C11.3326 16.25 11.5711 16.1513 11.7469 15.9754C11.9227 15.7996 12.0215 15.5612 12.0215 15.3125C12.0215 15.0639 11.9227 14.8254 11.7469 14.6496C11.5711 14.4738 11.3326 14.375 11.084 14.375H6.08398C5.83534 14.375 5.59689 14.4738 5.42108 14.6496C5.24526 14.8254 5.14648 15.0639 5.14648 15.3125C5.14648 15.5612 5.24526 15.7996 5.42108 15.9754C5.59689 16.1513 5.83534 16.25 6.08398 16.25Z" fill="white"/>
<path d="M21.3965 23.75H8.89648C6.57584 23.75 4.35025 22.8282 2.7093 21.1872C1.06836 19.5463 0.146484 17.3207 0.146484 15C0.146484 12.6794 1.06836 10.4538 2.7093 8.81285C4.35025 7.1719 6.57584 6.25003 8.89648 6.25003H21.3965C23.7171 6.25003 25.9427 7.1719 27.5837 8.81285C29.2246 10.4538 30.1465 12.6794 30.1465 15C30.1465 17.3207 29.2246 19.5463 27.5837 21.1872C25.9427 22.8282 23.7171 23.75 21.3965 23.75ZM21.3965 21.875C23.2198 21.875 24.9685 21.1507 26.2578 19.8614C27.5472 18.5721 28.2715 16.8234 28.2715 15C28.2715 13.1767 27.5472 11.428 26.2578 10.1387C24.9685 8.84936 23.2198 8.12503 21.3965 8.12503H8.89648C7.07312 8.12503 5.32444 8.84936 4.03513 10.1387C2.74582 11.428 2.02148 13.1767 2.02148 15C2.02148 16.8234 2.74582 18.5721 4.03513 19.8614C5.32444 21.1507 7.07312 21.875 8.89648 21.875H21.3965Z" fill="white"/>
<path fill-rule="evenodd" clip-rule="evenodd" d="M20.7715 17.1875C20.7715 17.6019 20.6069 17.9994 20.3138 18.2924C20.0208 18.5854 19.6234 18.75 19.209 18.75C18.7946 18.75 18.3972 18.5854 18.1041 18.2924C17.8111 17.9994 17.6465 17.6019 17.6465 17.1875C17.6465 16.7731 17.8111 16.3757 18.1041 16.0827C18.3972 15.7897 18.7946 15.625 19.209 15.625C19.6234 15.625 20.0208 15.7897 20.3138 16.0827C20.6069 16.3757 20.7715 16.7731 20.7715 17.1875ZM24.5215 13.4375C24.5215 13.8519 24.3569 14.2494 24.0638 14.5424C23.7708 14.8354 23.3734 15 22.959 15C22.5446 15 22.1472 14.8354 21.8541 14.5424C21.5611 14.2494 21.3965 13.8519 21.3965 13.4375C21.3965 13.0231 21.5611 12.6257 21.8541 12.3327C22.1472 12.0397 22.5446 11.875 22.959 11.875C23.3734 11.875 23.7708 12.0397 24.0638 12.3327C24.3569 12.6257 24.5215 13.0231 24.5215 13.4375Z" fill="white"/>
</g>
<defs>
<clipPath id="clip0_203_260">
<rect width="30" height="30" fill="white" transform="translate(0.146484 3.05176e-05)"/>
</clipPath>
</defs>
</svg>
