<svg width="31" height="30" viewBox="0 0 31 30" fill="none" xmlns="http://www.w3.org/2000/svg">
<path d="M27.8161 13.1679C27.8161 13.1679 27.814 13.1658 27.8118 13.1636L16.2468 3.14684C15.9522 2.86613 15.5665 2.70755 15.1347 2.70113C14.7265 2.70755 14.3408 2.86613 14.0761 3.12005L2.47684 13.1679C2.02791 13.5622 1.89184 14.1911 2.14791 14.7418C2.37398 15.2304 2.89684 15.5133 3.4347 15.5133H5.50362V25.424C5.50362 26.459 6.34362 27.299 7.37862 27.299H11.9322C12.5236 27.299 13.0036 26.819 13.0036 26.2276V19.6168C13.0036 19.4208 13.1622 19.2633 13.3572 19.2633H16.9358C17.1308 19.2633 17.2893 19.4208 17.2893 19.6168V26.2276C17.2893 26.819 17.7693 27.299 18.3608 27.299H22.9143C23.9504 27.299 24.7893 26.459 24.7893 25.424V15.5133H26.8583C27.3961 15.5133 27.919 15.2304 28.1451 14.7418C28.4011 14.1911 28.2651 13.5622 27.8161 13.1679Z" fill="#2374E1"/>
</svg>
