<svg width="41" height="41" viewBox="0 0 41 41" fill="none" xmlns="http://www.w3.org/2000/svg">
<path d="M17.2343 40.3C7.7343 38.6 0.534302 30.4 0.534302 20.5C0.534302 9.5 9.5343 0.5 20.5343 0.5C31.5343 0.5 40.5343 9.5 40.5343 20.5C40.5343 30.4 33.3343 38.6 23.8343 40.3L22.7343 39.4H18.3343L17.2343 40.3Z" fill="url(#paint0_linear_203_37)"/>
<path d="M28.3343 26.1L29.2344 20.5H23.9344V16.6C23.9344 15 24.5343 13.8 26.9344 13.8H29.5344V8.7C28.1344 8.5 26.5344 8.3 25.1344 8.3C20.5344 8.3 17.3343 11.1 17.3343 16.1V20.5H12.3344V26.1H17.3343V40.2C18.4343 40.4 19.5344 40.5 20.6344 40.5C21.7344 40.5 22.8343 40.4 23.9344 40.2V26.1H28.3343Z" fill="white"/>
<defs>
<linearGradient id="paint0_linear_203_37" x1="20.5353" y1="39.1089" x2="20.5353" y2="0.492632" gradientUnits="userSpaceOnUse">
<stop stop-color="#0062E0"/>
<stop offset="1" stop-color="#19AFFF"/>
</linearGradient>
</defs>
</svg>
