<svg width="31" height="30" viewBox="0 0 31 30" fill="none" xmlns="http://www.w3.org/2000/svg">
<path d="M18.8965 25.4465H23.4501C23.8936 25.4465 24.2536 25.0865 24.2536 24.6429V15H24.2868C24.1079 14.9111 23.9386 14.8018 23.7833 14.6722L23.3536 14.3132C23.254 14.2318 23.1104 14.2318 23.0108 14.3143L22.8351 14.4611C22.2083 14.9818 21.4197 15.2679 20.6054 15.2679H20.3633C19.5543 15.2679 18.7701 14.9861 18.1465 14.4707L17.9493 14.3079C17.8497 14.2265 17.7072 14.2265 17.6086 14.3079L17.4104 14.4718C16.7858 14.9861 16.0015 15.2679 15.1936 15.2679H15.0468C14.2486 15.2679 13.474 14.9936 12.8547 14.4911L12.6233 14.3036C12.5236 14.2232 12.3811 14.2243 12.2836 14.3057L12.0983 14.4611C11.4715 14.9829 10.6829 15.2679 9.86862 15.2679H9.67791C8.87112 15.2679 8.09005 14.9882 7.46648 14.4761L7.25862 14.3047C7.15898 14.2232 7.01755 14.2232 6.91791 14.3047L6.41327 14.7204C6.28148 14.8286 6.13791 14.9229 5.98791 15H6.03934V24.6429C6.03934 25.0865 6.39934 25.4465 6.84291 25.4465H11.3965V18.75C11.3965 18.0107 11.9965 17.4107 12.7358 17.4107H17.5572C18.2965 17.4107 18.8965 18.0107 18.8965 18.75V25.4465ZM4.08184 9.37503H26.2111C26.1822 9.2786 26.1511 9.18324 26.1158 9.08896L24.8826 5.73753C24.5997 5.02289 23.9086 4.5536 23.1404 4.5536H7.15362C6.38434 4.5536 5.69327 5.02289 5.41684 5.71931L4.17719 9.08896C4.14184 9.18324 4.11077 9.2786 4.08184 9.37503ZM26.3965 10.9822H3.89648V12.8572C3.89648 13.3007 4.25648 13.6607 4.70005 13.6607H4.88327C5.06969 13.6607 5.24969 13.5965 5.39327 13.4786L5.89791 13.064C6.58898 12.495 7.58755 12.495 8.27862 13.064L8.48648 13.2343C8.82184 13.5097 9.24291 13.6607 9.67791 13.6607H9.86862C10.3068 13.6607 10.7322 13.5075 11.0686 13.2268L11.2551 13.0715C11.9429 12.4982 12.9404 12.4918 13.6347 13.0554L13.8661 13.2418C14.2004 13.5129 14.6172 13.6607 15.0468 13.6607H15.1936C15.6286 13.6607 16.0508 13.5086 16.3872 13.2322L16.5854 13.0682C17.2776 12.4961 18.2793 12.4961 18.9725 13.0682L19.1697 13.2322C19.5051 13.5086 19.9272 13.6607 20.3633 13.6607H20.6054C21.0436 13.6607 21.469 13.5065 21.8065 13.2257L21.9822 13.08C22.6765 12.4993 23.6879 12.4993 24.3822 13.079L24.8129 13.4379C24.9854 13.5815 25.204 13.6607 25.43 13.6607C25.9647 13.6607 26.3965 13.229 26.3965 12.6965V10.9822ZM25.8608 15.2325V24.6429C25.8608 25.9747 24.7818 27.0536 23.4501 27.0536H6.84291C5.51112 27.0536 4.43219 25.9747 4.43219 24.6429V15.2529C3.22684 15.12 2.28934 14.0979 2.28934 12.8572V10.6618C2.28934 9.93431 2.41791 9.21431 2.66862 8.53289L3.91577 5.14503C4.44291 3.81753 5.72541 2.94646 7.15362 2.94646H23.1404C24.5676 2.94646 25.8501 3.81753 26.3836 5.16324L27.6243 8.53289C27.875 9.21431 28.0036 9.93431 28.0036 10.6618V12.6965C28.0036 13.9704 27.0768 15.0279 25.8608 15.2325ZM17.2893 25.4465V19.0179H13.0036V25.4465H17.2893Z" fill="white"/>
</svg>
