<svg width="40" height="41" viewBox="0 0 40 41" fill="none" xmlns="http://www.w3.org/2000/svg">
<circle cx="20" cy="20.4278" r="20" fill="white" fill-opacity="0.1"/>
<path d="M20 11.8864C24.8285 11.8864 28.5714 15.4235 28.5714 20.2007C28.5714 24.9778 24.8285 28.5149 20 28.5149C19.1618 28.5169 18.3272 28.4061 17.5185 28.1857C17.3666 28.1437 17.2049 28.1555 17.0607 28.2192L15.3571 28.9699C15.2543 29.0152 15.142 29.0346 15.0299 29.0264C14.9179 29.0181 14.8096 28.9825 14.7145 28.9226C14.6195 28.8627 14.5406 28.7805 14.4847 28.683C14.4289 28.5855 14.3978 28.4758 14.3943 28.3635L14.3478 26.8392C14.3447 26.7464 14.3227 26.6553 14.2831 26.5713C14.2436 26.4873 14.1873 26.4122 14.1178 26.3507C13.2578 25.5759 12.5731 24.6265 12.1093 23.566C11.6456 22.5054 11.4135 21.3581 11.4285 20.2007C11.4285 15.4235 15.1714 11.8864 20 11.8864ZM14.8528 22.6321C14.8019 22.7128 14.7809 22.8088 14.7936 22.9034C14.8062 22.9979 14.8517 23.0851 14.922 23.1496C14.9924 23.214 15.0831 23.2518 15.1784 23.2561C15.2738 23.2605 15.3676 23.2313 15.4435 23.1735L18.1478 21.1207C18.2372 21.0534 18.346 21.0171 18.4578 21.0171C18.5697 21.0171 18.6785 21.0534 18.7678 21.1207L20.7678 22.6207C20.9099 22.7269 21.0724 22.8025 21.2452 22.8429C21.4179 22.8833 21.5971 22.8874 21.7716 22.8552C21.946 22.8229 22.1119 22.7549 22.2587 22.6554C22.4056 22.5559 22.5303 22.4271 22.625 22.2771L25.1428 18.2828C25.1938 18.2021 25.2147 18.1061 25.2021 18.0115C25.1895 17.9169 25.144 17.8298 25.0737 17.7653C25.0033 17.7008 24.9125 17.6631 24.8172 17.6587C24.7219 17.6544 24.6281 17.6836 24.5521 17.7414L21.8478 19.7942C21.7585 19.8614 21.6497 19.8978 21.5378 19.8978C21.426 19.8978 21.3172 19.8614 21.2278 19.7942L19.2278 18.2942C19.0858 18.188 18.9232 18.1123 18.7505 18.072C18.5778 18.0316 18.3985 18.0274 18.2241 18.0597C18.0497 18.092 17.8838 18.16 17.7369 18.2595C17.5901 18.359 17.4654 18.4878 17.3707 18.6378L14.8528 22.6321Z" fill="white"/>
</svg>
