<svg width="40" height="41" viewBox="0 0 40 41" fill="none" xmlns="http://www.w3.org/2000/svg">
<circle cx="20" cy="20.4278" r="20" fill="white" fill-opacity="0.1"/>
<path d="M15.605 27.2049C16.5765 27.2049 18.1736 27.1157 20.3336 26.7178C19.96 27.7335 18.9865 28.4614 17.8429 28.4614C16.8922 28.4614 16.0593 27.9578 15.5893 27.2049H15.605ZM27.8022 21.6635C27.9786 22.5721 27.3415 23.3757 25.9072 24.0535C25.1215 24.4242 23.3743 25.1299 20.4886 25.6914C18.2629 26.1235 16.6322 26.2228 15.6057 26.2228C15.3007 26.2228 15.0486 26.2142 14.85 26.2028C13.2672 26.1121 12.3743 25.6049 12.1979 24.6964C11.93 23.3199 12.3536 22.7885 13.0557 21.9085L13.2407 21.6764C13.7143 21.0757 13.8993 20.4857 13.5965 18.9292C12.9186 15.4435 14.4886 13.0614 17.9029 12.3942C21.3186 11.7349 23.6672 13.3535 24.345 16.8399C24.6472 18.3964 25.04 18.8735 25.7043 19.2528V19.2535L25.9629 19.3999C26.9429 19.9528 27.5343 20.2864 27.8022 21.6635Z" fill="white"/>
</svg>
