<svg width="26" height="25" viewBox="0 0 26 25" fill="none" xmlns="http://www.w3.org/2000/svg">
<path d="M4.16211 3.66214L2.50195 2.00198C1.76465 1.26468 0.5 1.78714 0.5 2.82718V8.20316C0.5 8.85257 1.02246 9.37503 1.67188 9.37503H7.04785C8.09277 9.37503 8.61523 8.11038 7.87793 7.37308L6.37402 5.86917C8.06836 4.17484 10.4121 3.12503 13 3.12503C18.1758 3.12503 22.375 7.32425 22.375 12.5C22.375 17.6758 18.1758 21.875 13 21.875C11.0078 21.875 9.16211 21.2549 7.64355 20.1953C6.93555 19.7022 5.96387 19.8731 5.46582 20.5811C4.96777 21.2891 5.14355 22.2608 5.85156 22.7588C7.88281 24.17 10.3486 25 13 25C19.9043 25 25.5 19.4043 25.5 12.5C25.5 5.59573 19.9043 3.05176e-05 13 3.05176e-05C9.54785 3.05176e-05 6.42285 1.4014 4.16211 3.66214ZM13 6.25003C12.3506 6.25003 11.8281 6.77249 11.8281 7.42191V12.5C11.8281 12.8125 11.9502 13.1104 12.1699 13.3301L15.6855 16.8457C16.1445 17.3047 16.8867 17.3047 17.3408 16.8457C17.7949 16.3867 17.7998 15.6446 17.3408 15.1905L14.167 12.0166V7.42191C14.167 6.77249 13.6445 6.25003 12.9951 6.25003H13Z" fill="white"/>
</svg>
