<svg width="26" height="26" viewBox="0 0 26 26" fill="none" xmlns="http://www.w3.org/2000/svg">
<path fill-rule="evenodd" clip-rule="evenodd" d="M10.6883 6.05524H16.4935L13.1604 0.5H8.60507C8.29953 0.5 8.01761 0.511108 7.73846 0.523607L10.6883 6.05524ZM19.735 6.05524H24.8667C24.5528 4.62338 23.9639 3.56925 23.0251 2.59847C21.5516 1.17494 19.903 0.531943 16.9254 0.5H16.3991L19.7336 6.05524H19.735ZM7.54125 6.05524L4.84416 0.999952C3.83033 1.34299 3.0179 1.87491 2.24989 2.61793C1.32216 3.57621 0.73608 4.62477 0.423597 6.05524H7.54125ZM17.3226 17.1505C17.2418 17.2646 17.1377 17.3602 17.0171 17.431L10.6661 21.1405L10.5966 21.178C10.4455 21.2513 10.2783 21.2849 10.1106 21.2757C9.94293 21.2665 9.78033 21.2148 9.63812 21.1256C9.49591 21.0363 9.37876 20.9122 9.29765 20.7652C9.21655 20.6182 9.17416 20.4529 9.17449 20.285V12.8646L9.17729 12.7868C9.19056 12.6195 9.24609 12.4583 9.33868 12.3182C9.43127 12.1782 9.55787 12.064 9.70665 11.9863C9.85543 11.9086 10.0215 11.8699 10.1893 11.8739C10.3571 11.8779 10.5212 11.9244 10.6661 12.0091L17.0157 15.7172L17.0907 15.7672C17.1968 15.8428 17.2869 15.9385 17.356 16.0489C17.4251 16.1594 17.4717 16.2824 17.4932 16.4108C17.5148 16.5393 17.5108 16.6707 17.4815 16.7976C17.4522 16.9245 17.3983 17.0444 17.3226 17.1505ZM0.148615 8.83147V17.281L0.150014 17.3227V17.4782L0.156923 17.5449H0.158321C0.227762 20.3503 0.870798 21.9558 2.24989 23.3821C3.78036 24.8625 5.47748 25.5 8.60647 25.5H16.9254C19.903 25.4681 21.5516 24.825 23.0251 23.4015C24.4208 21.9571 25.0625 20.3489 25.1319 17.5449H25.1361C25.1403 17.406 25.143 17.406 25.1444 17.2616L25.1458 17.0449V8.83287H0.147217L0.148615 8.83147Z" fill="white"/>
</svg>
