<svg width="15" height="14" viewBox="0 0 15 14" fill="none" xmlns="http://www.w3.org/2000/svg">
<g clip-path="url(#clip0_203_65)">
<path d="M12.1733 5.9392C12.1733 7.10463 11.7665 8.18119 11.0813 9.05462L14.5376 12.2716C14.8788 12.589 14.8788 13.1044 14.5376 13.4218C14.1963 13.7392 13.6421 13.7392 13.3008 13.4218L9.84452 10.2048C8.90536 10.8447 7.74779 11.2204 6.49467 11.2204C3.35777 11.2204 0.81604 8.85658 0.81604 5.9392C0.81604 3.02182 3.35777 0.657959 6.49467 0.657959C9.63157 0.657959 12.1733 3.02182 12.1733 5.9392ZM6.49467 9.59544C7.01095 9.59544 7.52216 9.50087 7.99914 9.31713C8.47611 9.13338 8.9095 8.86407 9.27456 8.52455C9.63963 8.18504 9.92921 7.78198 10.1268 7.33838C10.3243 6.89479 10.426 6.41934 10.426 5.9392C10.426 5.45905 10.3243 4.98361 10.1268 4.54001C9.92921 4.09642 9.63963 3.69336 9.27456 3.35384C8.9095 3.01433 8.47611 2.74501 7.99914 2.56127C7.52216 2.37753 7.01095 2.28296 6.49467 2.28296C5.9784 2.28296 5.46718 2.37753 4.99021 2.56127C4.51323 2.74501 4.07984 3.01433 3.71478 3.35384C3.34972 3.69336 3.06014 4.09642 2.86257 4.54001C2.665 4.98361 2.56331 5.45905 2.56331 5.9392C2.56331 6.41934 2.665 6.89479 2.86257 7.33838C3.06014 7.78198 3.34972 8.18504 3.71478 8.52455C4.07984 8.86407 4.51323 9.13338 4.99021 9.31713C5.46718 9.50087 5.9784 9.59544 6.49467 9.59544Z" fill="white" fill-opacity="0.9"/>
</g>
<defs>
<clipPath id="clip0_203_65">
<rect width="13.9782" height="13" fill="white" transform="translate(0.81604 0.657959)"/>
</clipPath>
</defs>
</svg>
