<svg width="27" height="26" viewBox="0 0 27 26" fill="none" xmlns="http://www.w3.org/2000/svg">
<path fill-rule="evenodd" clip-rule="evenodd" d="M14.5976 24.816C14.5972 24.9561 14.64 25.093 14.72 25.2079C14.8001 25.3229 14.9136 25.4104 15.0452 25.4585C15.1768 25.5066 15.32 25.5131 15.4554 25.4769C15.5907 25.4408 15.7117 25.3638 15.8017 25.2565L17.329 23.4401C17.4409 23.3026 17.5821 23.1917 17.7423 23.1155C17.9024 23.0393 18.0775 22.9998 18.2549 22.9997H23.0575C24.0662 23.0008 25.0341 22.6017 25.7489 21.89C26.4637 21.1783 26.867 20.2121 26.8702 19.2034V4.29768C26.8673 3.28877 26.4642 2.3222 25.7494 1.61019C25.0346 0.898181 24.0665 0.498914 23.0575 0.500002H18.3476C17.353 0.500002 16.3992 0.895077 15.696 1.59833C14.9927 2.30158 14.5976 3.2554 14.5976 4.24995V24.816ZM12.5522 24.816C12.5527 24.9561 12.5099 25.093 12.4298 25.2079C12.3498 25.3229 12.2362 25.4104 12.1047 25.4585C11.9731 25.5066 11.8299 25.5131 11.6945 25.4769C11.5592 25.4408 11.4382 25.3638 11.3482 25.2565L9.82091 23.4401C9.70895 23.3026 9.56775 23.1917 9.4076 23.1155C9.24744 23.0393 9.07234 22.9998 8.89499 22.9997H4.09232C3.08364 23.0008 2.11574 22.6017 1.40096 21.89C0.68618 21.1783 0.282913 20.2121 0.279663 19.2034V4.29768C0.282552 3.28877 0.685642 2.3222 1.40046 1.61019C2.11528 0.898181 3.0834 0.498914 4.09232 0.500002H8.80227C9.79682 0.500002 10.7506 0.895077 11.4539 1.59833C12.1571 2.30158 12.5522 3.2554 12.5522 4.24995V24.816Z" fill="#2374E1"/>
</svg>
