<svg width="31" height="30" viewBox="0 0 31 30" fill="none" xmlns="http://www.w3.org/2000/svg">
<path d="M9.52144 27.0536C9.07787 27.0536 8.71787 26.6936 8.71787 26.25C8.71787 25.8065 9.07787 25.4465 9.52144 25.4465H20.7714C21.215 25.4465 21.575 25.8065 21.575 26.25C21.575 26.6936 21.215 27.0536 20.7714 27.0536H9.52144ZM18.5354 13.7636L13.0625 17.0604C12.5654 17.3593 11.9322 17.0025 11.9322 16.4218V9.82717C11.9322 9.24753 12.5654 8.88967 13.0625 9.1886L18.5354 12.4865C19.0164 12.7757 19.0164 13.4732 18.5354 13.7636ZM23.45 21.6965C24.7807 21.6965 25.8607 20.6165 25.8607 19.2857V6.96431C25.8607 5.6336 24.7807 4.5536 23.45 4.5536H6.84287C5.51216 4.5536 4.43216 5.6336 4.43216 6.96431V19.2857C4.43216 20.6165 5.51216 21.6965 6.84287 21.6965H23.45ZM23.45 23.3036H6.84287C4.62394 23.3036 2.82501 21.5047 2.82501 19.2857V6.96431C2.82501 4.74539 4.62394 2.94646 6.84287 2.94646H23.45C25.6689 2.94646 27.4679 4.74539 27.4679 6.96431V19.2857C27.4679 21.5047 25.6689 23.3036 23.45 23.3036Z" fill="white"/>
</svg>
