<svg width="17" height="14" viewBox="0 0 17 14" fill="none" xmlns="http://www.w3.org/2000/svg">
<g clip-path="url(#clip0_203_61)">
<path d="M0.957275 3.90796C0.957275 3.01167 1.74082 2.28296 2.70455 2.28296H9.69363C10.6574 2.28296 11.4409 3.01167 11.4409 3.90796V10.4079C11.4409 11.3042 10.6574 12.0329 9.69363 12.0329H2.70455C1.74082 12.0329 0.957275 11.3042 0.957275 10.4079V3.90796ZM16.2213 3.19194C16.5053 3.33413 16.6827 3.60835 16.6827 3.90796V10.4079C16.6827 10.7076 16.5053 10.9818 16.2213 11.124C15.9374 11.2661 15.5934 11.2509 15.3231 11.0833L12.7022 9.45833L12.3145 9.21712V8.78295V5.53295V5.09877L12.7022 4.85756L15.3231 3.23257C15.5907 3.06753 15.9347 3.04975 16.2213 3.19194Z" fill="white" fill-opacity="0.9"/>
</g>
<defs>
<clipPath id="clip0_203_61">
<rect width="15.7254" height="13" fill="white" transform="translate(0.957275 0.657959)"/>
</clipPath>
</defs>
</svg>
